<svg xmlns="http://www.w3.org/2000/svg" width="365.7" height="135.7" viewBox="0 0 365.7 135.7">
  <defs>
    <style>
      .a {
        fill: #0081c7;
      }

      .a, .b {
        fill-rule: evenodd;
      }

      .b {
        fill: #fff;
      }
    </style>
  </defs>
  <g>
    <polygon class="a" points="88.3 43.9 44.4 43.9 88.3 0 88.3 43.9"/>
    <polygon class="a" points="88.3 88.3 44.4 88.3 88.3 44.4 88.3 88.3"/>
    <polygon class="a" points="43.9 88.3 0 88.3 43.9 44.4 43.9 88.3"/>
    <path class="b" d="M120.3,102.4H116V51a4.9,4.9,0,0,1,2.1-4,7.8,7.8,0,0,1,4.7-1.3h10.9c2.8,0,8.6.4,12.8,4.9S151,61.4,151,66.5s-.3,11-3.4,15.7-8.2,6.4-15.2,6.4H120.3Zm13.8-17.6c3.9,0,7.8-1.5,10-4.8s2.4-7.3,2.4-12.9-.6-9.2-1.5-11.4c-2.1-4.5-6.5-6.2-10.4-6.2H122.2a2,2,0,0,0-1.3.6c-.6.4-.6.9-.6,1.5V84.8Z"/>
    <path class="b" d="M179.4,45.7a10.1,10.1,0,0,1,7.5,3c2.3,2.4,2.6,6,2.6,8.6V82.9c0,1.2-.1,3.2-1.4,4.5s-3.4,1.2-4.9,1.2H166.7c-2.5,0-5.4-.1-7.8-1.9s-3.8-8.8-3.8-11.4.5-7.5,3.6-10.1,5.5-2.3,8-2.3h18.6V56.5a10.2,10.2,0,0,0-1.6-5.1,6.4,6.4,0,0,0-4.5-1.9H158.3V45.7ZM165.7,66.8a5.6,5.6,0,0,0-4.7,2.1c-1,1.3-1.4,3.6-1.4,6.6s.3,5.7,1.7,7.4a5.5,5.5,0,0,0,4.2,1.9h17.4a2.4,2.4,0,0,0,1.8-.5,1.8,1.8,0,0,0,.6-1.4V66.8Z"/>
    <path class="b" d="M196.5,45.7h4.2V88.6h-4.2Zm27.1,42.9-18.1-17c-2.2-2-2.8-3.8-2.8-5.1s2-4.3,3.4-5.6l16.3-15.2h5.8L209.1,63.8c-.6.5-1.8,1.6-1.8,2.7a4.7,4.7,0,0,0,1.3,2.4l20.9,19.7Z"/>
    <polygon class="b" points="244.1 102.5 239.6 102.5 246.1 88.4 227.9 45.7 232.5 45.7 248.3 83.4 265.3 45.7 269.8 45.7 244.1 102.5"/>
    <path class="b" d="M275.3,102.4h-4.2V51a4.9,4.9,0,0,1,2-4,8.1,8.1,0,0,1,4.8-1.3h10.9c2.8,0,8.6.4,12.8,4.9s4.5,10.8,4.5,15.9-.3,11-3.4,15.7-8.3,6.4-15.2,6.4H275.3Zm13.9-17.6c3.9,0,7.8-1.5,9.9-4.8s2.5-7.3,2.5-12.9-.6-9.2-1.6-11.4c-2-4.5-6.4-6.2-10.3-6.2H277.3a2,2,0,0,0-1.3.6,1.5,1.5,0,0,0-.7,1.5V84.8Z"/>
    <path class="b" d="M327.3,88.6c-6.1,0-10.2-2.4-12.7-5.4s-3.9-9.2-3.9-15.5.4-12.6,4.9-17.2c2.5-2.6,6.6-4.8,13.4-4.8h14.5v3.8h-15c-6.9,0-11.1,3.6-12.4,8.7a48.6,48.6,0,0,0-.8,10.1c0,2.8.4,7.7,1.4,10.1,2.5,5.7,8.8,6.4,12.7,6.4h15v3.8Z"/>
    <path class="b" d="M359.4,6.1a6.4,6.4,0,0,1,6.3,6.3h-.1A6.4,6.4,0,1,1,353,14.1a4.3,4.3,0,0,1,0-1.6,6.3,6.3,0,0,1,6.1-6.4Zm0,1a5.2,5.2,0,0,0-5.3,5.2v.2a5.2,5.2,0,0,0,4.4,5.9,5.1,5.1,0,0,0,5.8-4.5,3.3,3.3,0,0,0,0-1.4A5.2,5.2,0,0,0,359.4,7.1ZM358,16.2V13h1.3l1.8,3.2h1.2l-1.9-3.3a1.9,1.9,0,0,0,1.9-1.9h-.1c0-1.4-.9-2.1-2.5-2.1h-2.8v7.4Zm0-4.2h1.3c1.4,0,1.7-.3,1.7-1.2s-.2-1-1.5-1H358Z"/>
    <path class="b" d="M119.9,130.2l.3-.4c0-.1-.1-.1-.2-.1h-1.6a3.3,3.3,0,0,1-2.9-1.3,5.7,5.7,0,0,1-.7-3.4,4.7,4.7,0,0,1,1-3.4,3.5,3.5,0,0,1,2.4-1h6.3a2.6,2.6,0,0,1,1.7.5,2.4,2.4,0,0,1,.5,1.8v12.6h-1.5V123a2.2,2.2,0,0,0-.1-.8c-.3-.3-.6-.2-1-.2h-5.9a1.5,1.5,0,0,0-1.4.7,3.7,3.7,0,0,0-.5,2.3,4.1,4.1,0,0,0,.4,2.4,1.8,1.8,0,0,0,1.8,1h2.7c.5,0,1.1,0,1.1.8a1.5,1.5,0,0,1-.4.9l-5.6,5.4h-1.9Z"/>
    <path class="b" d="M134.6,135.5a5,5,0,0,1-4.3-1.9c-1.2-1.4-1.4-3.1-1.4-5.3s.1-4.4,1.7-6a6,6,0,0,1,4.6-1.7h5V122H135c-2.3,0-3.8,1.2-4.2,3a20.7,20.7,0,0,0-.3,3.5,10.2,10.2,0,0,0,.5,3.5c.9,1.9,3,2.2,4.4,2.2h5.2v1.3Z"/>
    <polygon class="b" points="153.1 135.5 153.1 128.5 144.2 128.5 144.2 135.5 142.8 135.5 142.8 120.6 144.2 120.6 144.2 127.2 153.1 127.2 153.1 120.6 154.6 120.6 154.6 135.5 153.1 135.5"/>
    <path class="b" d="M158.7,122.1c1.4-1.4,3.6-1.6,5.5-1.6s4,.2,5.4,1.6,1.9,4.2,1.9,5.9c0,3.2-.9,5-1.9,6s-4.1,1.7-5.4,1.7-3.9-.1-5.5-1.7-1.9-2.8-1.9-6S157.1,123.7,158.7,122.1Zm.9,10.8c1.2,1.3,3,1.5,4.6,1.5a5.8,5.8,0,0,0,4.5-1.5c1.2-1.3,1.2-3.6,1.2-4.8s0-3.6-1.2-4.9-3.1-1.4-4.5-1.4-3.5.1-4.6,1.4-1.2,3.6-1.2,4.9,0,3.5,1.2,4.8Z"/>
    <path class="b" d="M178.9,135.5a5.3,5.3,0,0,1-4.4-1.9c-1.2-1.4-1.3-3.1-1.3-5.3s.1-4.4,1.6-6a6.1,6.1,0,0,1,4.7-1.7h5V122h-5.2a4,4,0,0,0-4.3,3,20.7,20.7,0,0,0-.3,3.5,13.4,13.4,0,0,0,.5,3.5c.9,1.9,3,2.2,4.4,2.2h5.2v1.3Z"/>
    <polygon class="b" points="190.9 135.5 190.9 122 185.4 122 185.4 120.6 198 120.6 198 122 192.4 122 192.4 135.5 190.9 135.5"/>
    <path class="b" d="M200.6,120.6V127h6.8a3.4,3.4,0,0,1,2.5.9,4.2,4.2,0,0,1,1.1,3.2,5.6,5.6,0,0,1-1.1,3.7,4,4,0,0,1-2.8.7h-6.4a1.6,1.6,0,0,1-1.2-.3,1.5,1.5,0,0,1-.4-1.4V120.6Zm0,12.7v.7a.8.8,0,0,0,.7.2h6.1a1.8,1.8,0,0,0,1.5-.7,4,4,0,0,0,.5-2.4,3.8,3.8,0,0,0-.5-2.1,1.8,1.8,0,0,0-1.5-.7h-6.8Z"/>
    <path class="b" d="M221.8,135.5a1.9,1.9,0,0,1-1.5-.4,1.5,1.5,0,0,1-.6-1.5v-13h1.5v12.6a.8.8,0,0,0,.2.8c.1.2.6.2.8.2H230V120.6h1.4v13.6h2v1.3Z"/>
    <path class="b" d="M239,135.5a4.6,4.6,0,0,1-3.9-1.8c-1.1-1.5-1.2-3.4-1.2-5.6s.1-4.6,2-6.1a6.8,6.8,0,0,1,4.6-1.4,8.5,8.5,0,0,1,3.8.9,5.2,5.2,0,0,1,2.4,4.7,3.1,3.1,0,0,1-.6,1.9,3.3,3.3,0,0,1-1.6.5h-9a10.1,10.1,0,0,0,.2,3,3.4,3.4,0,0,0,3.3,2.6h7.3v1.3Zm5.5-8.2c.7,0,.6-.8.6-1a5,5,0,0,0-1-3.1c-1-1.2-2.5-1.2-3.8-1.2s-3.1,0-4.1,1.8a5.4,5.4,0,0,0-.7,3.5Z"/>
    <path class="b" d="M252.8,121.7c.5-1.1,1.2-1.2,1.5-1.2s1,.1,1.4,1.2l5.6,13.8h-1.7l-5-13c-.1-.2-.2-.5-.3-.5s-.2.3-.3.5l-5.1,13h-1.6Z"/>
    <path class="b" d="M273.3,135.5V122.6c0-.2.1-.4-.1-.4l-.3.4-7.5,12c-.5.7-.9,1.1-1.6,1.1a1.5,1.5,0,0,1-1.4-1.6V120.6h1.5v13c0,.1,0,.3.1.3s.2-.1.3-.3l7.7-12.2a1.5,1.5,0,0,1,1.5-.9c1.3,0,1.3,1.3,1.3,1.7v13.3Z"/>
  </g>
</svg>
